<?xml version="1.0" encoding="UTF-8"?>
<svg xmlns="http://www.w3.org/2000/svg" xmlns:xlink="http://www.w3.org/1999/xlink" width="2834.88" height="2834.88" viewBox="0 0 2834.88 2834.88">
<path fill-rule="evenodd" fill="rgb(0%, 0%, 0%)" fill-opacity="1" d="M 1417.320312 1782.601562 C 1416.289062 1782.628906 1411 1782.398438 1409.441406 1782.320312 C 1296.371094 1776.878906 1286.21875 1712.988281 1286.21875 1620.828125 C 1286.21875 1529.878906 1346.21875 1442.539062 1408.160156 1432.949219 C 1410.171875 1432.640625 1413.929688 1431.980469 1417.410156 1432.019531 C 1420.871094 1432.070312 1424.128906 1432.601562 1425.960938 1432.871094 C 1488.089844 1442.050781 1548.421875 1529.621094 1548.421875 1620.828125 C 1548.421875 1712.449219 1538.398438 1776.128906 1427.191406 1782.21875 C 1424.988281 1782.339844 1418.359375 1782.628906 1417.320312 1782.601562 Z M 1213.109375 1431.089844 C 1242.488281 1431.089844 1266.339844 1454.941406 1266.339844 1484.320312 C 1266.339844 1513.699219 1242.488281 1537.550781 1213.109375 1537.550781 C 1183.730469 1537.550781 1159.878906 1513.699219 1159.878906 1484.320312 C 1159.878906 1454.941406 1183.730469 1431.089844 1213.109375 1431.089844 Z M 1642.980469 1431.089844 C 1672.359375 1431.089844 1696.21875 1454.941406 1696.21875 1484.320312 C 1696.21875 1513.699219 1672.359375 1537.550781 1642.980469 1537.550781 C 1613.601562 1537.550781 1589.75 1513.699219 1589.75 1484.320312 C 1589.75 1454.941406 1613.601562 1431.089844 1642.980469 1431.089844 Z M 1115.550781 1177.859375 C 1115.671875 1190.308594 1111.878906 1198.488281 1107.03125 1206.859375 C 1102.039062 1215.460938 1095.75 1224.300781 1078.648438 1241.019531 C 1051.800781 1267.269531 1020.539062 1306.460938 994.824219 1362.558594 C 914.550781 1537.699219 974.328125 1679.46875 974.328125 1679.46875 C 974.328125 1679.46875 788.882812 1752.941406 644.925781 1614.988281 C 584.46875 1557.050781 450.28125 1241.179688 671.917969 1054.019531 C 779.796875 962.929688 888.894531 967.710938 961.835938 997.230469 C 1000.980469 1013.070312 1035.730469 1039.398438 1057.929688 1066.019531 C 1108.121094 1126.21875 1115.300781 1151.25 1115.550781 1177.859375 Z M 1719.101562 1177.859375 C 1719.351562 1151.25 1726.519531 1126.21875 1776.710938 1066.019531 C 1798.910156 1039.398438 1833.671875 1013.070312 1872.808594 997.230469 C 1945.75 967.710938 2054.851562 962.929688 2162.730469 1054.019531 C 2384.359375 1241.179688 2250.179688 1557.050781 2189.71875 1614.988281 C 2045.761719 1752.941406 1860.320312 1679.46875 1860.320312 1679.46875 C 1860.320312 1679.46875 1920.089844 1537.699219 1839.820312 1362.558594 C 1814.109375 1306.460938 1782.851562 1267.269531 1756 1241.019531 C 1738.898438 1224.300781 1732.609375 1215.460938 1727.621094 1206.859375 C 1722.761719 1198.488281 1718.980469 1190.308594 1719.101562 1177.859375 Z M 1541.820312 1793.308594 C 1514.328125 1831.480469 1468.789062 1856.449219 1417.320312 1856.449219 C 1365.851562 1856.449219 1320.320312 1831.480469 1292.828125 1793.308594 C 1325.988281 1816.421875 1369.589844 1830.460938 1417.320312 1830.460938 C 1465.050781 1830.460938 1508.648438 1816.421875 1541.820312 1793.308594 "/>
</svg>
